HIERARCHY
ROOT hips
{
	OFFSET 0.000000 104.274902 0.000000
	CHANNELS 6 Xposition Yposition Zposition Xrotation Yrotation Zrotation
	JOINT spine
	{
		OFFSET 0.000000 10.181549 0.131524
		CHANNELS 6 Xposition Yposition Zposition Xrotation Yrotation Zrotation
		JOINT chest
		{
			OFFSET 0.000000 9.893990 -1.470706
			CHANNELS 3 Xrotation Yrotation Zrotation
			JOINT upperChest
			{
				OFFSET 0.000000 9.220787 -1.370637
				CHANNELS 3 Xrotation Yrotation Zrotation
				JOINT neck
				{
					OFFSET 0.000000 16.740372 -2.049022
					CHANNELS 6 Xposition Yposition Zposition Xrotation Yrotation Zrotation
					JOINT head
					{
						OFFSET 0.000000 9.617859 1.684976
						CHANNELS 6 Xposition Yposition Zposition Xrotation Yrotation Zrotation
						JOINT headEnd
						{
							OFFSET 0.000000 22.037384 7.501072
							CHANNELS 6 Xposition Yposition Zposition Xrotation Yrotation Zrotation
							End Site
							{
								OFFSET 0.000000 23.106567 -2.828246
							}
						}
					}
				}
				JOINT rightShoulder
				{
					OFFSET -4.570000 11.014877 -2.160840
					CHANNELS 6 Xposition Yposition Zposition Xrotation Yrotation Zrotation
					JOINT rightUpperArm
					{
						OFFSET -10.592867 -0.524796 -2.232105
						CHANNELS 3 Xrotation Yrotation Zrotation
						JOINT rightLowerArm
						{
							OFFSET -27.841497 0.000000 -0.000002
							CHANNELS 3 Xrotation Yrotation Zrotation
							JOINT rightHand
							{
								OFFSET -28.328812 0.000000 -0.000001
								CHANNELS 3 Xrotation Yrotation Zrotation
								JOINT rightThumbProximal
								{
									OFFSET -2.464798 -1.573990 2.681911
									CHANNELS 6 Xposition Yposition Zposition Xrotation Yrotation Zrotation
									JOINT rightThumbIntermediate
									{
										OFFSET -3.244781 -1.873383 1.873376
										CHANNELS 3 Xrotation Yrotation Zrotation
										JOINT rightThumbDistal
										{
											OFFSET -2.646263 -1.527817 1.527818
											CHANNELS 6 Xposition Yposition Zposition Xrotation Yrotation Zrotation
											JOINT rightHandThumb4
											{
												OFFSET -1.994591 -1.151581 1.151575
												CHANNELS 6 Xposition Yposition Zposition Xrotation Yrotation Zrotation
												End Site
												{
													OFFSET -1.860176 -1.142715 1.365483
												}
											}
										}
									}
								}
								JOINT rightIndexProximal
								{
									OFFSET -9.108299 -0.517883 2.259803
									CHANNELS 6 Xposition Yposition Zposition Xrotation Yrotation Zrotation
									JOINT rightIndexIntermediate
									{
										OFFSET -3.699997 0.000000 0.000000
										CHANNELS 3 Xrotation Yrotation Zrotation
										JOINT rightIndexDistal
										{
											OFFSET -2.850006 0.000000 0.000000
											CHANNELS 3 Xrotation Yrotation Zrotation
											JOINT rightHandIndex4
											{
												OFFSET -2.772194 0.000000 0.000000
												CHANNELS 3 Xrotation Yrotation Zrotation
												End Site
												{
													OFFSET -2.772202 0.000000 -0.000484
												}
											}
										}
									}
								}
								JOINT rightMiddleProximal
								{
									OFFSET -9.532501 0.000000 -0.000000
									CHANNELS 6 Xposition Yposition Zposition Xrotation Yrotation Zrotation
									JOINT rightMiddleIntermediate
									{
										OFFSET -3.699997 0.000000 0.000000
										CHANNELS 3 Xrotation Yrotation Zrotation
										JOINT rightMiddleDistal
										{
											OFFSET -2.949997 0.000000 0.000000
											CHANNELS 3 Xrotation Yrotation Zrotation
											JOINT rightHandMiddle4
											{
												OFFSET -2.946594 0.000000 0.000000
												CHANNELS 3 Xrotation Yrotation Zrotation
												End Site
												{
													OFFSET -2.946602 0.000000 -0.000982
												}
											}
										}
									}
								}
								JOINT rightRingProximal
								{
									OFFSET -9.103600 -0.043106 -1.865100
									CHANNELS 6 Xposition Yposition Zposition Xrotation Yrotation Zrotation
									JOINT rightRingIntermediate
									{
										OFFSET -3.379303 0.000000 0.000000
										CHANNELS 3 Xrotation Yrotation Zrotation
										JOINT rightRingDistal
										{
											OFFSET -2.889694 0.000000 0.000000
											CHANNELS 3 Xrotation Yrotation Zrotation
											JOINT rightHandRing4
											{
												OFFSET -2.638802 0.000000 0.000000
												CHANNELS 3 Xrotation Yrotation Zrotation
												End Site
												{
													OFFSET -2.638802 0.000000 0.004218
												}
											}
										}
									}
								}
								JOINT rightLittleProximal
								{
									OFFSET -8.076698 -0.486725 -3.806299
									CHANNELS 6 Xposition Yposition Zposition Xrotation Yrotation Zrotation
									JOINT rightLittleIntermediate
									{
										OFFSET -3.600006 0.000000 0.000000
										CHANNELS 3 Xrotation Yrotation Zrotation
										JOINT rightLittleDistal
										{
											OFFSET -2.099998 0.000000 0.000000
											CHANNELS 3 Xrotation Yrotation Zrotation
											JOINT rightHandPinky4
											{
												OFFSET -2.115791 0.000000 0.000000
												CHANNELS 3 Xrotation Yrotation Zrotation
												End Site
												{
													OFFSET -2.115799 0.000000 0.000174
												}
											}
										}
									}
								}
							}
						}
					}
				}
				JOINT leftShoulder
				{
					OFFSET 4.570400 11.014679 -2.160816
					CHANNELS 6 Xposition Yposition Zposition Xrotation Yrotation Zrotation
					JOINT leftUpperArm
					{
						OFFSET 10.592373 -0.524597 -2.232116
						CHANNELS 3 Xrotation Yrotation Zrotation
						JOINT leftLowerArm
						{
							OFFSET 27.841488 0.000000 0.000001
							CHANNELS 3 Xrotation Yrotation Zrotation
							JOINT leftHand
							{
								OFFSET 28.328808 0.000000 -0.000000
								CHANNELS 3 Xrotation Yrotation Zrotation
								JOINT leftThumbProximal
								{
									OFFSET 2.466103 -1.576202 2.681698
									CHANNELS 6 Xposition Yposition Zposition Xrotation Yrotation Zrotation
									JOINT leftThumbIntermediate
									{
										OFFSET 3.243317 -1.872528 1.872530
										CHANNELS 3 Xrotation Yrotation Zrotation
										JOINT leftThumbDistal
										{
											OFFSET 2.647881 -1.528763 1.528754
											CHANNELS 6 Xposition Yposition Zposition Xrotation Yrotation Zrotation
											JOINT leftHandThumb4
											{
												OFFSET 1.998924 -1.154083 1.154080
												CHANNELS 6 Xposition Yposition Zposition Xrotation Yrotation Zrotation
												End Site
												{
													OFFSET 1.884041 -1.149155 1.337651
												}
											}
										}
									}
								}
								JOINT leftIndexProximal
								{
									OFFSET 9.109299 -0.518005 2.259900
									CHANNELS 6 Xposition Yposition Zposition Xrotation Yrotation Zrotation
									JOINT leftIndexIntermediate
									{
										OFFSET 3.699997 0.000000 0.000000
										CHANNELS 3 Xrotation Yrotation Zrotation
										JOINT leftIndexDistal
										{
											OFFSET 2.850006 0.000000 0.000000
											CHANNELS 3 Xrotation Yrotation Zrotation
											JOINT leftHandIndex4
											{
												OFFSET 2.774895 0.000000 0.000000
												CHANNELS 3 Xrotation Yrotation Zrotation
												End Site
												{
													OFFSET 2.774902 0.000000 -0.000072
												}
											}
										}
									}
								}
								JOINT leftMiddleProximal
								{
									OFFSET 9.533401 0.000000 0.000000
									CHANNELS 6 Xposition Yposition Zposition Xrotation Yrotation Zrotation
									JOINT leftMiddleIntermediate
									{
										OFFSET 3.699997 0.000000 0.000000
										CHANNELS 3 Xrotation Yrotation Zrotation
										JOINT leftMiddleDistal
										{
											OFFSET 2.949997 0.000000 0.000000
											CHANNELS 3 Xrotation Yrotation Zrotation
											JOINT leftHandMiddle4
											{
												OFFSET 2.952896 0.000000 0.000000
												CHANNELS 3 Xrotation Yrotation Zrotation
												End Site
												{
													OFFSET 2.952904 0.000000 0.000165
												}
											}
										}
									}
								}
								JOINT leftRingProximal
								{
									OFFSET 9.104500 -0.042999 -1.865101
									CHANNELS 6 Xposition Yposition Zposition Xrotation Yrotation Zrotation
									JOINT leftRingIntermediate
									{
										OFFSET 3.149994 0.000000 0.000000
										CHANNELS 3 Xrotation Yrotation Zrotation
										JOINT leftRingDistal
										{
											OFFSET 2.950005 0.000000 0.000000
											CHANNELS 3 Xrotation Yrotation Zrotation
											JOINT leftHandRing4
											{
												OFFSET 2.644302 0.000000 0.000000
												CHANNELS 3 Xrotation Yrotation Zrotation
												End Site
												{
													OFFSET 2.644302 0.000000 0.000083
												}
											}
										}
									}
								}
								JOINT leftLittleProximal
								{
									OFFSET 8.077805 -0.486893 -3.806302
									CHANNELS 6 Xposition Yposition Zposition Xrotation Yrotation Zrotation
									JOINT leftLittleIntermediate
									{
										OFFSET 3.600006 0.000000 0.000000
										CHANNELS 3 Xrotation Yrotation Zrotation
										JOINT leftLittleDistal
										{
											OFFSET 2.099998 0.000000 0.000000
											CHANNELS 3 Xrotation Yrotation Zrotation
											JOINT leftHandPinky4
											{
												OFFSET 2.125496 0.000000 0.000000
												CHANNELS 3 Xrotation Yrotation Zrotation
												End Site
												{
													OFFSET 2.125504 0.000000 -0.001254
												}
											}
										}
									}
								}
							}
						}
					}
				}
			}
		}
	}
	JOINT rightUpperLeg
	{
		OFFSET -8.207800 -6.751701 -1.599544
		CHANNELS 6 Xposition Yposition Zposition Xrotation Yrotation Zrotation
		JOINT rightLowerLeg
		{
			OFFSET 0.000004 -44.370152 0.345934
			CHANNELS 3 Xrotation Yrotation Zrotation
			JOINT rightFoot
			{
				OFFSET 0.000004 -44.423664 -3.043535
				CHANNELS 3 Xrotation Yrotation Zrotation
				JOINT rightToes
				{
					OFFSET 0.000001 -8.728691 10.710592
					CHANNELS 3 Xrotation Yrotation Zrotation
					JOINT rightToesEnd
					{
						OFFSET 0.000000 -0.000665 9.278101
						CHANNELS 3 Xrotation Yrotation Zrotation
						End Site
						{
							OFFSET 0.000000 -0.000665 9.278103
						}
					}
				}
			}
		}
	}
	JOINT leftUpperLeg
	{
		OFFSET 8.207800 -6.751701 -1.599544
		CHANNELS 6 Xposition Yposition Zposition Xrotation Yrotation Zrotation
		JOINT leftLowerLeg
		{
			OFFSET 0.000004 -44.370037 0.346940
			CHANNELS 3 Xrotation Yrotation Zrotation
			JOINT leftFoot
			{
				OFFSET 0.000004 -44.423611 -3.044388
				CHANNELS 3 Xrotation Yrotation Zrotation
				JOINT leftToes
				{
					OFFSET 0.000001 -8.728690 10.710592
					CHANNELS 3 Xrotation Yrotation Zrotation
					JOINT leftToesEnd
					{
						OFFSET 0.000000 -0.000680 9.278101
						CHANNELS 3 Xrotation Yrotation Zrotation
						End Site
						{
							OFFSET 0.000000 -0.000680 9.278101
						}
					}
				}
			}
		}
	}
}
MOTION
Frames: 4
Frame Time: 0.033333
0.031743 102.945168 17.258869 -8.920610 56.972268 6.706584 0.000001 10.181548 0.131521 0.024023 -6.462011 -3.437326 0.051780 -13.564137 -5.037073 -0.030289 -13.588442 -4.980372 -0.000001 16.740347 -2.049019 -3.065226 -2.754086 5.894057 0.000003 9.617880 1.684978 1.819805 -6.240806 10.176536 0.000000 22.037338 7.501079 0.000002 -0.000002 -0.000001 -4.570002 11.014879 -2.160838 -0.054093 -9.246714 4.385957 42.176947 -4.786044 40.661250 0.000001 14.191177 0.000011 22.122571 1.099645 8.976480 -2.464791 -1.573983 2.681903 -1.849242 -3.581791 -6.586144 4.637199 -8.634135 -0.225374 -2.646286 -1.527800 1.527812 -1.273749 0.137304 -2.094869 -1.994590 -1.151581 1.151582 0.000002 -0.000006 -0.000000 -9.108288 -0.517881 2.259795 0.000000 -0.000001 -0.000001 -0.000005 -0.000002 0.000035 0.000045 0.023042 -0.189086 0.000001 0.000005 0.000003 -9.532490 0.000002 -0.000001 -0.000001 -0.000000 -0.000001 0.000001 0.000005 0.000002 -0.000002 0.000003 0.000001 -0.000003 0.000004 0.000002 -9.103580 -0.043105 -1.865101 0.000000 -0.000001 -0.000001 0.000001 0.000005 0.000002 0.000003 0.000000 0.000002 0.000005 0.000001 0.000001 -8.076676 -0.486728 -3.806299 0.000003 0.000000 -0.000009 0.000000 -0.000002 0.000000 -0.000002 -0.000002 0.000001 -0.000000 -0.000001 0.000003 4.570403 11.014663 -2.160814 0.369006 7.983099 -11.421132 -62.006937 -23.080109 -90.580254 0.000027 -73.198126 0.000038 2.333523 -20.391147 1.738730 2.466096 -1.576209 2.681696 -1.539949 3.690277 6.142346 3.939040 7.948705 0.746801 2.647887 -1.528760 1.528750 -0.579468 1.574998 2.538709 1.998929 -1.154092 1.154083 0.000003 0.000003 -0.000002 9.109284 -0.518006 2.259894 -0.000001 -0.000000 -0.000000 -0.000001 0.000001 -0.000019 0.000037 -0.022827 0.189113 -0.000004 -0.000001 0.000001 9.533381 0.000012 -0.000005 -0.000004 -0.001936 0.015988 0.000001 0.001938 -0.015988 -0.000003 -0.000000 0.000000 -0.000002 -0.000000 0.000000 9.104493 -0.043000 -1.865103 -0.000001 -0.000000 -0.000000 0.000000 -0.000000 -0.000000 0.000000 -0.000000 -0.000000 -0.000001 -0.000004 0.000000 8.077785 -0.486897 -3.806307 -0.018087 4.054267 0.511061 -0.018092 -4.054266 -0.511063 -0.000003 -0.000000 -0.000000 -0.000002 -0.000000 -0.000001 -8.207799 -6.751710 -1.599545 -19.361641 -3.883852 -7.545217 35.263601 -10.775219 -1.010567 14.727237 -13.708284 -12.766780 -23.207545 -0.004209 0.586644 -0.000001 -0.000001 0.000001 8.207801 -6.751704 -1.599546 -15.697291 2.140418 -0.643641 43.083378 -0.079335 -0.013967 28.967549 6.017890 23.060614 -51.244843 0.389536 -5.644328 -0.000000 -0.000000 -0.000001 
0.240498 103.048470 17.622074 -7.997600 56.665520 4.524145 0.000000 10.181554 0.131527 -0.032171 -6.452472 -3.257474 0.035129 -13.577608 -4.254071 -0.064170 -13.600805 -4.189897 0.000002 16.740370 -2.049016 -3.225970 -2.757482 6.080664 0.000001 9.617864 1.684977 1.849169 -5.789971 9.525530 -0.000004 22.037369 7.501073 0.000001 0.000001 0.000001 -4.569999 11.014886 -2.160834 -0.062514 -9.111091 4.181041 38.828082 -7.927086 38.093987 -0.000001 12.076852 0.000009 22.647147 0.207569 8.437034 -2.464798 -1.574004 2.681926 -1.849239 -3.581790 -6.586142 4.637206 -8.634136 -0.225371 -2.646280 -1.527811 1.527828 -1.273745 0.137302 -2.094872 -1.994597 -1.151582 1.151590 -0.000003 -0.000003 -0.000000 -9.108303 -0.517881 2.259813 0.000002 0.000005 0.000001 -0.000003 -0.000005 0.000036 0.000045 0.023044 -0.189086 0.000004 0.000002 0.000001 -9.532498 -0.000001 0.000012 0.000002 0.000005 0.000001 0.000003 0.000000 0.000001 0.000000 0.000003 0.000003 0.000002 0.000001 0.000003 -9.103597 -0.043104 -1.865084 0.000002 0.000004 0.000001 -0.000001 0.000001 0.000003 0.000001 0.000000 0.000002 0.000005 0.000001 0.000002 -8.076706 -0.486728 -3.806287 0.000008 0.000001 -0.000009 0.000002 0.000003 0.000002 0.000002 0.000003 0.000002 -0.000000 0.000003 -0.000000 4.570405 11.014698 -2.160812 0.369261 8.227048 -11.698926 -58.056956 -18.280750 -92.208913 0.000037 -76.267217 0.000026 -0.890831 -21.707975 -1.316374 2.466099 -1.576190 2.681695 -1.539947 3.690279 6.142343 3.939038 7.948708 0.746809 2.647895 -1.528743 1.528766 -0.579465 1.575001 2.538716 1.998924 -1.154108 1.154079 0.000000 -0.000002 0.000003 9.109288 -0.518019 2.259896 0.000000 0.000001 0.000001 0.000000 0.000004 -0.000019 0.000039 -0.022827 0.189113 0.000003 -0.000000 0.000000 9.533388 -0.000003 -0.000004 -0.000000 -0.001934 0.015989 0.000002 0.001936 -0.015986 -0.000002 0.000002 0.000000 -0.000001 -0.000001 0.000001 9.104482 -0.042998 -1.865104 0.000000 0.000001 0.000001 0.000000 0.000001 0.000001 0.000000 0.000001 0.000001 0.000002 0.000000 0.000000 8.077804 -0.486896 -3.806306 -0.018086 4.054266 0.511063 -0.018094 -4.054266 -0.511064 0.000002 -0.000001 0.000000 0.000002 -0.000002 0.000000 -8.207801 -6.751705 -1.599542 -19.063137 -4.287535 -5.964491 34.263405 -10.959474 -0.992480 14.845252 -12.935383 -13.095885 -23.241655 -0.004353 0.599342 0.000000 0.000000 0.000001 8.207801 -6.751690 -1.599539 -16.700680 1.211397 0.796903 44.137966 -0.813638 -0.035608 29.899146 5.895091 19.708967 -49.796485 0.406356 -5.943952 -0.000001 -0.000002 0.000001 
0.517593 103.122757 17.841295 -7.106590 55.872839 2.299912 0.000002 10.181547 0.131526 -0.096023 -6.362080 -3.031474 0.020001 -13.442267 -3.373133 -0.094102 -13.462959 -3.301037 0.000003 16.740353 -2.049019 -3.347341 -2.736523 6.232454 0.000004 9.617839 1.684975 1.928002 -5.279767 8.860308 0.000003 22.037384 7.501081 -0.000002 0.000001 0.000000 -4.569996 11.014857 -2.160838 -0.072149 -9.047797 4.011163 34.381717 -11.134710 34.678578 0.000001 10.592886 0.000007 23.242775 -0.963223 8.041794 -2.464793 -1.574002 2.681918 -1.849240 -3.581790 -6.586151 4.637201 -8.634135 -0.225376 -2.646258 -1.527816 1.527815 -1.273755 0.137301 -2.094878 -1.994598 -1.151600 1.151573 0.000002 -0.000000 -0.000000 -9.108296 -0.517868 2.259804 0.000004 0.000001 -0.000001 -0.000002 -0.000004 0.000034 0.000046 0.023043 -0.189084 0.000005 0.000005 0.000002 -9.532491 0.000015 0.000005 0.000004 0.000001 -0.000001 0.000003 0.000001 0.000001 0.000003 0.000001 0.000001 0.000002 -0.000001 0.000002 -9.103589 -0.043105 -1.865095 0.000004 0.000000 -0.000001 0.000002 0.000002 0.000001 0.000002 0.000003 0.000004 0.000002 -0.000001 0.000002 -8.076689 -0.486710 -3.806295 0.000009 0.000000 -0.000010 0.000004 0.000002 0.000001 0.000004 0.000002 0.000001 0.000005 0.000004 0.000003 4.570403 11.014690 -2.160814 0.369267 8.327417 -11.811308 -53.376641 -14.448203 -93.432364 -0.000043 -79.235365 -0.000043 -4.970942 -22.356780 -3.695692 2.466146 -1.576211 2.681702 -1.539948 3.690278 6.142344 3.939037 7.948706 0.746807 2.647876 -1.528757 1.528748 -0.579468 1.574994 2.538707 1.998940 -1.154109 1.154086 0.000000 -0.000001 -0.000000 9.109314 -0.518005 2.259897 -0.000000 -0.000001 0.000000 0.000000 0.000003 -0.000019 0.000037 -0.022829 0.189111 0.000000 -0.000000 0.000001 9.533421 -0.000002 -0.000005 -0.000001 -0.001936 0.015988 0.000001 0.001935 -0.015989 -0.000000 0.000000 0.000000 -0.000002 -0.000001 0.000000 9.104538 -0.042999 -1.865099 -0.000000 -0.000001 0.000000 -0.000001 -0.000000 0.000000 -0.000001 -0.000000 0.000000 0.000000 -0.000000 0.000001 8.077826 -0.486897 -3.806305 -0.018087 4.054266 0.511063 -0.018093 -4.054264 -0.511062 -0.000001 -0.000000 0.000000 -0.000000 0.000000 -0.000000 -8.207800 -6.751700 -1.599540 -18.702021 -4.773901 -4.495426 33.160097 -11.118962 -0.950451 14.867893 -11.548743 -13.145328 -23.124720 -0.003378 0.529631 -0.000002 -0.000000 0.000002 8.207799 -6.751693 -1.599542 -17.749529 -0.038273 2.005866 45.871062 -1.358767 -0.038559 29.436073 5.454154 16.080232 -46.772299 0.274958 -4.986475 0.000000 -0.000000 0.000000 
0.844785 103.140877 17.934454 -6.384588 54.711615 0.255884 0.000001 10.181559 0.131521 -0.147940 -6.215363 -2.712541 0.024289 -13.193787 -2.443665 -0.098417 -13.210215 -2.364798 -0.000002 16.740351 -2.049015 -3.440847 -2.697964 6.353811 0.000001 9.617810 1.684983 2.018652 -4.734779 8.142603 -0.000002 22.037354 7.501080 0.000001 0.000000 0.000001 -4.570000 11.014893 -2.160836 -0.084624 -9.157675 3.931209 28.485908 -14.048396 30.217396 0.000010 9.621957 0.000004 23.801321 -2.455842 7.740019 -2.464795 -1.573987 2.681903 -1.849241 -3.581787 -6.586140 4.637197 -8.634133 -0.225375 -2.646269 -1.527811 1.527818 -1.273752 0.137301 -2.094870 -1.994587 -1.151571 1.151576 -0.000003 -0.000005 0.000001 -9.108296 -0.517881 2.259796 0.000003 0.000001 0.000002 -0.000001 -0.000006 0.000033 0.000042 0.023040 -0.189087 -0.000005 0.000001 -0.000002 -9.532506 0.000004 -0.000005 0.000002 0.000000 0.000002 -0.000002 0.000000 0.000001 -0.000002 -0.000001 -0.000000 -0.000001 0.000000 -0.000000 -9.103597 -0.043104 -1.865106 -0.000001 0.000002 0.000002 -0.000006 -0.000001 -0.000001 0.000003 0.000002 0.000003 -0.000001 0.000001 0.000004 -8.076699 -0.486738 -3.806304 0.000005 0.000001 -0.000009 -0.000002 -0.000001 -0.000002 -0.000002 -0.000001 -0.000002 -0.000003 -0.000001 -0.000002 4.570398 11.014681 -2.160810 0.368539 8.272548 -11.738353 -48.289403 -12.672749 -94.126468 -0.000002 -82.156971 -0.000001 -9.902433 -22.296854 -5.028793 2.466087 -1.576194 2.681700 -1.539949 3.690278 6.142346 3.939037 7.948703 0.746806 2.647873 -1.528752 1.528750 -0.579466 1.574998 2.538709 1.998913 -1.154073 1.154066 -0.000000 0.000003 0.000001 9.109293 -0.518019 2.259894 0.000000 -0.000000 -0.000001 0.000001 0.000002 -0.000020 0.000038 -0.022828 0.189113 -0.000000 -0.000001 -0.000002 9.533409 -0.000000 0.000006 -0.000001 -0.001935 0.015989 0.000002 0.001934 -0.015989 0.000000 -0.000001 -0.000002 -0.000000 -0.000002 -0.000000 9.104486 -0.042998 -1.865097 0.000000 -0.000000 -0.000001 -0.000000 -0.000000 -0.000002 -0.000000 -0.000000 -0.000002 -0.000000 -0.000000 -0.000002 8.077827 -0.486910 -3.806295 -0.018087 4.054266 0.511063 -0.018091 -4.054267 -0.511064 0.000000 -0.000000 -0.000001 0.000000 0.000001 0.000000 -8.207801 -6.751692 -1.599543 -18.227574 -5.364232 -3.260732 32.043727 -11.210074 -0.883616 14.574807 -9.588275 -12.910081 -22.683618 -0.001853 0.393577 -0.000001 0.000001 0.000003 8.207800 -6.751697 -1.599545 -18.404836 -1.639825 2.799511 47.501848 -2.523544 -0.075380 28.525646 5.071155 13.049623 -43.638014 0.173659 -4.027941 0.000001 0.000001 -0.000000 
